HIERARCHY
ROOT joint_Root
{
	OFFSET 0.0 0.0 0.0
	CHANNELS 6 Xposition Yposition Zposition Zrotation Xrotation Yrotation 
	JOINT Hips
	{
		OFFSET -17.1583 93.1646 452.98
		CHANNELS 6 Xposition Yposition Zposition Zrotation Xrotation Yrotation 
		JOINT Spine
		{
			OFFSET 15.7357 0.0 0.0
			CHANNELS 6 Xposition Yposition Zposition Zrotation Xrotation Yrotation 
			JOINT Chest
			{
				OFFSET 8.98455 -0.406207 0.0
				CHANNELS 6 Xposition Yposition Zposition Zrotation Xrotation Yrotation 
				JOINT Neck
				{
					OFFSET 16.3773 0.0 0.0
					CHANNELS 6 Xposition Yposition Zposition Zrotation Xrotation Yrotation 
					JOINT Head
					{
						OFFSET 6.45672 0.0 0.0
						CHANNELS 6 Xposition Yposition Zposition Zrotation Xrotation Yrotation 
						End Site
						{
							OFFSET 0.0 0.0 0.0
						}
					}
				}
				JOINT Shoulder_L
				{
					OFFSET 12.9942 -0.242716 4.98039
					CHANNELS 6 Xposition Yposition Zposition Zrotation Xrotation Yrotation 
					JOINT UpperArm_L
					{
						OFFSET 5.34809 0.0 0.0
						CHANNELS 6 Xposition Yposition Zposition Zrotation Xrotation Yrotation 
						JOINT LowerArm_L
						{
							OFFSET 24.3286 1.87007e-05 0.0
							CHANNELS 6 Xposition Yposition Zposition Zrotation Xrotation Yrotation 
							JOINT Hand_L
							{
								OFFSET 22.2916 0.0 0.0
								CHANNELS 6 Xposition Yposition Zposition Zrotation Xrotation Yrotation 
								End Site
								{
									OFFSET 0.0 0.0 0.0
								}
							}
						}
					}
				}
				JOINT Shoulder_R
				{
					OFFSET 12.9945 -0.242716 -4.98039
					CHANNELS 6 Xposition Yposition Zposition Zrotation Xrotation Yrotation 
					JOINT UpperArm_R
					{
						OFFSET -5.34813 0.0 0.0
						CHANNELS 6 Xposition Yposition Zposition Zrotation Xrotation Yrotation 
						JOINT LowerArm_R
						{
							OFFSET -24.3289 0.000322201 0.0
							CHANNELS 6 Xposition Yposition Zposition Zrotation Xrotation Yrotation 
							JOINT Hand_R
							{
								OFFSET -22.2915 -0.000108084 0.0
								CHANNELS 6 Xposition Yposition Zposition Zrotation Xrotation Yrotation 
								End Site
								{
									OFFSET 0.0 0.0 0.0
								}
							}
						}
					}
				}
			}
		}
		JOINT UpperLeg_L
		{
			OFFSET -2.19248 -6.46944 0.0
			CHANNELS 6 Xposition Yposition Zposition Zrotation Xrotation Yrotation 
			JOINT LowerLeg_L
			{
				OFFSET 39.0811 0.0 -1.23785e-05
				CHANNELS 6 Xposition Yposition Zposition Zrotation Xrotation Yrotation 
				JOINT Foot_L
				{
					OFFSET 40.9854 0.0 -1.26872e-05
					CHANNELS 6 Xposition Yposition Zposition Zrotation Xrotation Yrotation 
					JOINT Toes_L
					{
						OFFSET 11.7543 0.0 0.0
						CHANNELS 6 Xposition Yposition Zposition Zrotation Xrotation Yrotation 
						End Site
						{
							OFFSET 0.0 0.0 0.0
						}
					}
				}
			}
		}
		JOINT UpperLeg_R
		{
			OFFSET -2.19251 6.46944 0.0
			CHANNELS 6 Xposition Yposition Zposition Zrotation Xrotation Yrotation 
			JOINT LowerLeg_R
			{
				OFFSET -39.0811 -0.00228153 -0.0401928
				CHANNELS 6 Xposition Yposition Zposition Zrotation Xrotation Yrotation 
				JOINT Foot_R
				{
					OFFSET -40.9854 0.0 0.0
					CHANNELS 6 Xposition Yposition Zposition Zrotation Xrotation Yrotation 
					JOINT Toes_R
					{
						OFFSET -11.7543 0.0 0.0
						CHANNELS 6 Xposition Yposition Zposition Zrotation Xrotation Yrotation 
						End Site
						{
							OFFSET 0.0 0.0 0.0
						}
					}
				}
			}
		}
	}
}
MOTION
Frames:	4
Frame Time:	0.0333333
0.000000 0.000000 0.000000 0.000000 0.000000 -0.000000 -2.038700 88.522600 40.263200 -91.200500 6.405960 173.951000 15.735700 0.000005 -0.000001 173.623000 87.146200 -173.569000 8.984550 -0.406207 -0.000000 -7.154870 5.653190 0.462004 16.377300 -0.000001 -0.000001 -2.738870 2.714810 0.967309 6.456720 -0.000001 -0.000000 5.184400 2.426500 -2.802720 12.994200 -0.242716 4.980390 -93.374900 8.823890 -68.971500 5.348090 -0.000007 -0.000001 -50.897600 -18.284900 18.589800 24.328600 0.000019 0.000005 0.856665 14.220700 -3.483140 22.291600 -0.000001 0.000005 24.183900 4.156450 21.804900 12.994500 -0.242716 -4.980390 89.323000 2.421070 -74.373600 -5.348130 -0.000001 -0.000004 -66.762900 8.843420 -17.434500 -24.328900 0.000322 -0.000009 -8.807490 -6.510480 -53.791100 -22.291500 -0.000108 -0.000004 13.296300 5.531660 -7.866750 -2.192480 -6.469440 -0.000000 175.410000 -6.364780 -37.736200 39.081100 -0.000007 -0.000012 0.168292 -0.290879 30.052100 40.985400 -0.000006 -0.000013 2.970730 7.647750 -58.296700 11.754300 -0.000000 0.000003 0.002401 0.068165 -13.812100 -2.192510 6.469440 -0.000001 174.799000 4.255160 -173.652000 -39.081100 -0.002282 -0.040193 0.045978 -0.072248 30.570400 -40.985400 0.000008 0.000006 -7.706240 4.671270 -57.022600 -11.754300 -0.000006 -0.000006 -0.159114 -0.572422 -40.840800
0.000000 0.000000 0.000000 0.000000 0.000000 -0.000000 -2.566200 88.019200 34.251900 -92.776200 6.439230 175.210000 15.735700 0.000005 -0.000001 169.850000 87.255000 -170.480000 8.984550 -0.406207 -0.000000 -6.785770 5.473530 -0.938285 16.377300 -0.000001 -0.000001 -2.595550 2.583970 1.120010 6.456720 -0.000001 -0.000000 5.349790 2.603330 -1.596690 12.994200 -0.242716 4.980390 -93.796100 9.860940 -68.821800 5.348090 -0.000007 -0.000001 -54.445800 -15.861900 13.063300 24.328600 0.000019 0.000005 0.917359 12.967100 -4.080220 22.291600 -0.000001 0.000005 8.626920 4.463860 17.035300 12.994500 -0.242716 -4.980390 89.095700 3.183390 -74.132400 -5.348130 -0.000001 -0.000004 -68.892500 9.450800 -13.207500 -24.328900 0.000322 -0.000009 -6.029190 -6.074980 -44.910200 -22.291500 -0.000108 -0.000004 10.601200 5.512690 -7.023360 -2.192480 -6.469440 -0.000000 174.305000 -3.936240 -36.508000 39.081100 -0.000007 -0.000012 0.323984 -0.425729 37.271900 40.985400 -0.000006 -0.000013 3.744850 5.513310 -62.468100 11.754300 -0.000000 0.000003 0.001726 0.130179 -11.297700 -2.192510 6.469440 -0.000001 172.774000 3.244390 -174.892000 -39.081100 -0.002282 -0.040193 0.121726 -0.153443 37.664400 -40.985400 0.000008 0.000006 -6.161430 2.564740 -47.457500 -11.754300 -0.000006 -0.000006 -0.178003 -0.607253 -42.447200
0.000000 0.000000 0.000000 0.000000 0.000000 -0.000000 -3.034710 87.784000 28.725100 -93.977500 6.924560 177.162000 15.735700 0.000005 -0.000001 158.004000 87.266900 -159.143000 8.984550 -0.406207 -0.000000 -5.678890 5.195000 -2.023820 16.377300 -0.000001 -0.000001 -2.522260 2.700430 0.976068 6.456720 -0.000001 -0.000000 5.351960 2.879340 -0.646158 12.994200 -0.242716 4.980390 -94.015800 10.467400 -68.872200 5.348090 -0.000007 -0.000001 -59.117300 -11.392700 6.731780 24.328600 0.000019 0.000005 1.949500 16.792700 -6.707950 22.291600 -0.000001 0.000005 -4.252360 4.777760 11.570800 12.994500 -0.242716 -4.980390 88.914400 3.775470 -73.945600 -5.348130 -0.000001 -0.000004 -70.276300 11.590300 -10.345400 -24.328900 0.000322 -0.000009 -2.976050 -4.670000 -32.473600 -22.291500 -0.000108 -0.000004 6.719370 5.444180 -4.361190 -2.192480 -6.469440 -0.000000 172.957000 -3.296530 -32.877000 39.081100 -0.000007 -0.000012 0.484444 -0.547963 41.480300 40.985400 -0.000006 -0.000013 4.375810 4.147790 -67.747500 11.754300 -0.000000 0.000003 0.000594 0.156945 -10.211700 -2.192510 6.469440 -0.000001 171.266000 1.558970 -179.070000 -39.081100 -0.002282 -0.040193 0.224977 -0.198164 48.211700 -40.985400 0.000008 0.000006 -5.093700 -0.116478 -35.509900 -11.754300 -0.000006 -0.000006 -0.024289 -0.189981 -24.344100
0.000000 0.000000 0.000000 0.000000 0.000000 -0.000000 -3.391580 87.747500 23.999800 -95.185300 8.116630 178.713000 15.735700 0.000005 -0.000001 147.879000 87.388700 -149.412000 8.984550 -0.406207 -0.000000 -4.934260 4.588460 -2.870800 16.377300 -0.000001 -0.000001 -2.270800 3.444160 0.121746 6.456720 -0.000001 -0.000000 5.791430 3.698440 -0.087028 12.994200 -0.242716 4.980390 -94.106900 10.813000 -69.056600 5.348090 -0.000007 -0.000001 -62.595000 -3.316340 1.546080 24.328600 0.000019 0.000005 5.501710 23.278800 -13.673300 22.291600 -0.000001 0.000005 -11.244100 5.066130 5.794310 12.994500 -0.242716 -4.980390 88.777300 4.272630 -74.013700 -5.348130 -0.000001 -0.000004 -71.272900 14.609700 -8.321130 -24.328900 0.000322 -0.000009 0.237861 0.777416 -18.351900 -22.291500 -0.000108 -0.000004 1.146520 5.323290 -0.498286 -2.192480 -6.469440 -0.000000 171.352000 -4.402900 -28.798900 39.081100 -0.000007 -0.000012 0.576557 -0.618504 42.991100 40.985400 -0.000006 -0.000013 5.029520 3.619720 -71.799100 11.754300 -0.000000 0.000003 -0.000434 0.174631 -9.493470 -2.192510 6.469440 -0.000001 169.894000 0.096688 173.869000 -39.081100 -0.002282 -0.040193 0.330660 -0.205182 57.928600 -40.985400 0.000008 0.000006 -3.913850 -3.758490 -21.811000 -11.754300 -0.000006 -0.000006 0.001568 0.134839 -11.105200
